<?xml version="1.0" encoding="utf-8"?>
<!-- Generator: Adobe Illustrator 19.0.0, SVG Export Plug-In . SVG Version: 6.00 Build 0)  -->
<svg width="36" height="48" version="1.1" id="Calque_1" xmlns="http://www.w3.org/2000/svg" xmlns:xlink="http://www.w3.org/1999/xlink" x="0px" y="0px"
	 viewBox="0 0 36 48" style="enable-background:new 0 0 36 48;" xml:space="preserve">
<style type="text/css">
	.st0{fill:none;}
	.st1{fill:#D80027;}
	.st2{fill:#FFFFFF;}
</style>
<title>background</title>
<g>
	<path class="st0" d="M-1-1h38v50H-1V-1z"/>
	<g transform="matrix(1.317389, 0, 0, 1.317389, 82.897354, -133.667511)">
		<path class="st1" d="M-49.3,101.7c-7.5,0-13.5,6-13.5,13.5s11.3,22.5,13.5,22.5c2.3,0,13.5-15,13.5-22.5S-41.8,101.7-49.3,101.7z
			 M-49.3,124.2c-5,0-9-4-9-9s4-9,9-9s9,4,9,9S-44.3,124.2-49.3,124.2z"/>
	</g>
	<circle class="st2" cx="17.9" cy="18.2" r="11.9"/>
</g>
</svg>
